<mxfile host="app.diagrams.net" agent="Mozilla/5.0 (Macintosh; Intel Mac OS X 10_15_7) AppleWebKit/537.36 (KHTML, like Gecko) Chrome/139.0.0.0 Safari/537.36" version="28.1.1">
  <diagram name="第 1 页" id="IIeuhiTx5am88Ce6QUmT">
    <mxGraphModel dx="2503" dy="1036" grid="1" gridSize="10" guides="1" tooltips="1" connect="1" arrows="1" fold="1" page="1" pageScale="1" pageWidth="827" pageHeight="1169" math="0" shadow="0">
      <root>
        <mxCell id="0" />
        <mxCell id="1" parent="0" />
        <mxCell id="a0exR-PvPegkOZugwnQl-3" value="" style="outlineConnect=0;dashed=0;verticalLabelPosition=bottom;verticalAlign=top;align=center;html=1;shape=mxgraph.aws3.s3;fillColor=#E05243;gradientColor=none;" parent="1" vertex="1">
          <mxGeometry x="148" y="80" width="76.5" height="93" as="geometry" />
        </mxCell>
        <mxCell id="a0exR-PvPegkOZugwnQl-11" value="&lt;div&gt;SIS 團隊提供三訓練資料源&lt;/div&gt;(Training_Company_User.csv, Training_Company_Item.csv, Training_Company_ItemInteraction.csv)" style="text;html=1;align=center;verticalAlign=middle;resizable=0;points=[];autosize=1;strokeColor=none;fillColor=none;" parent="1" vertex="1">
          <mxGeometry x="-630" y="211.5" width="560" height="40" as="geometry" />
        </mxCell>
        <mxCell id="a0exR-PvPegkOZugwnQl-12" style="edgeStyle=orthogonalEdgeStyle;rounded=0;orthogonalLoop=1;jettySize=auto;html=1;entryX=0.675;entryY=0.067;entryDx=0;entryDy=0;entryPerimeter=0;" parent="1" source="lYJ9KyydGNnGyywSWM4X-19" target="lYJ9KyydGNnGyywSWM4X-3" edge="1">
          <mxGeometry relative="1" as="geometry">
            <mxPoint x="45" y="440" as="targetPoint" />
            <mxPoint x="45" y="300" as="sourcePoint" />
          </mxGeometry>
        </mxCell>
        <mxCell id="lYJ9KyydGNnGyywSWM4X-1" style="edgeStyle=orthogonalEdgeStyle;rounded=0;orthogonalLoop=1;jettySize=auto;html=1;exitX=0.5;exitY=0;exitDx=0;exitDy=0;exitPerimeter=0;" edge="1" parent="1" source="lYJ9KyydGNnGyywSWM4X-23" target="a0exR-PvPegkOZugwnQl-3">
          <mxGeometry relative="1" as="geometry">
            <mxPoint x="178" y="470" as="sourcePoint" />
          </mxGeometry>
        </mxCell>
        <mxCell id="lYJ9KyydGNnGyywSWM4X-2" value="download" style="text;html=1;align=center;verticalAlign=middle;resizable=0;points=[];autosize=1;strokeColor=none;fillColor=none;" vertex="1" parent="1">
          <mxGeometry x="-50" y="350" width="70" height="30" as="geometry" />
        </mxCell>
        <mxCell id="lYJ9KyydGNnGyywSWM4X-25" value="" style="edgeStyle=orthogonalEdgeStyle;rounded=0;orthogonalLoop=1;jettySize=auto;html=1;" edge="1" parent="1" source="lYJ9KyydGNnGyywSWM4X-3" target="lYJ9KyydGNnGyywSWM4X-23">
          <mxGeometry relative="1" as="geometry" />
        </mxCell>
        <mxCell id="lYJ9KyydGNnGyywSWM4X-3" value="Generate JSONL files from CSV" style="text;html=1;align=center;verticalAlign=middle;resizable=0;points=[];autosize=1;strokeColor=none;fillColor=none;" vertex="1" parent="1">
          <mxGeometry x="-90" y="490" width="200" height="30" as="geometry" />
        </mxCell>
        <mxCell id="lYJ9KyydGNnGyywSWM4X-4" value="upload" style="text;html=1;align=center;verticalAlign=middle;resizable=0;points=[];autosize=1;strokeColor=none;fillColor=none;" vertex="1" parent="1">
          <mxGeometry x="190" y="340" width="60" height="30" as="geometry" />
        </mxCell>
        <mxCell id="lYJ9KyydGNnGyywSWM4X-5" value="AWS S3" style="text;html=1;align=center;verticalAlign=middle;resizable=0;points=[];autosize=1;strokeColor=none;fillColor=none;" vertex="1" parent="1">
          <mxGeometry x="148" y="50" width="70" height="30" as="geometry" />
        </mxCell>
        <mxCell id="lYJ9KyydGNnGyywSWM4X-6" value="" style="sketch=0;points=[[0,0,0],[0.25,0,0],[0.5,0,0],[0.75,0,0],[1,0,0],[0,1,0],[0.25,1,0],[0.5,1,0],[0.75,1,0],[1,1,0],[0,0.25,0],[0,0.5,0],[0,0.75,0],[1,0.25,0],[1,0.5,0],[1,0.75,0]];outlineConnect=0;fontColor=#232F3E;fillColor=#01A88D;strokeColor=#ffffff;dashed=0;verticalLabelPosition=bottom;verticalAlign=top;align=center;html=1;fontSize=12;fontStyle=0;aspect=fixed;shape=mxgraph.aws4.resourceIcon;resIcon=mxgraph.aws4.personalize;" vertex="1" parent="1">
          <mxGeometry x="520" y="192.5" width="78" height="78" as="geometry" />
        </mxCell>
        <mxCell id="lYJ9KyydGNnGyywSWM4X-9" value="" style="edgeStyle=orthogonalEdgeStyle;rounded=0;orthogonalLoop=1;jettySize=auto;html=1;" edge="1" parent="1" source="lYJ9KyydGNnGyywSWM4X-7" target="lYJ9KyydGNnGyywSWM4X-8">
          <mxGeometry relative="1" as="geometry" />
        </mxCell>
        <mxCell id="lYJ9KyydGNnGyywSWM4X-7" value="Create Schema" style="text;html=1;align=center;verticalAlign=middle;resizable=0;points=[];autosize=1;strokeColor=none;fillColor=none;" vertex="1" parent="1">
          <mxGeometry x="539" y="320" width="110" height="30" as="geometry" />
        </mxCell>
        <mxCell id="lYJ9KyydGNnGyywSWM4X-32" value="" style="edgeStyle=orthogonalEdgeStyle;rounded=0;orthogonalLoop=1;jettySize=auto;html=1;" edge="1" parent="1" source="lYJ9KyydGNnGyywSWM4X-8" target="lYJ9KyydGNnGyywSWM4X-29">
          <mxGeometry relative="1" as="geometry" />
        </mxCell>
        <mxCell id="lYJ9KyydGNnGyywSWM4X-8" value="Create Dataset" style="text;html=1;align=center;verticalAlign=middle;resizable=0;points=[];autosize=1;strokeColor=none;fillColor=none;" vertex="1" parent="1">
          <mxGeometry x="544" y="411.5" width="100" height="30" as="geometry" />
        </mxCell>
        <mxCell id="lYJ9KyydGNnGyywSWM4X-35" style="edgeStyle=orthogonalEdgeStyle;rounded=0;orthogonalLoop=1;jettySize=auto;html=1;exitX=0.779;exitY=1.022;exitDx=0;exitDy=0;exitPerimeter=0;" edge="1" parent="1" source="lYJ9KyydGNnGyywSWM4X-10" target="lYJ9KyydGNnGyywSWM4X-34">
          <mxGeometry relative="1" as="geometry" />
        </mxCell>
        <mxCell id="lYJ9KyydGNnGyywSWM4X-37" value="" style="edgeStyle=orthogonalEdgeStyle;rounded=0;orthogonalLoop=1;jettySize=auto;html=1;" edge="1" parent="1" source="lYJ9KyydGNnGyywSWM4X-10" target="lYJ9KyydGNnGyywSWM4X-36">
          <mxGeometry relative="1" as="geometry" />
        </mxCell>
        <mxCell id="lYJ9KyydGNnGyywSWM4X-10" value="Create Dataset Group" style="text;html=1;align=center;verticalAlign=middle;resizable=0;points=[];autosize=1;strokeColor=none;fillColor=none;" vertex="1" parent="1">
          <mxGeometry x="660" y="320" width="140" height="30" as="geometry" />
        </mxCell>
        <mxCell id="lYJ9KyydGNnGyywSWM4X-11" style="edgeStyle=orthogonalEdgeStyle;rounded=0;orthogonalLoop=1;jettySize=auto;html=1;entryX=1.01;entryY=0.594;entryDx=0;entryDy=0;entryPerimeter=0;exitX=0.436;exitY=1.022;exitDx=0;exitDy=0;exitPerimeter=0;" edge="1" parent="1" source="lYJ9KyydGNnGyywSWM4X-10" target="lYJ9KyydGNnGyywSWM4X-8">
          <mxGeometry relative="1" as="geometry" />
        </mxCell>
        <mxCell id="lYJ9KyydGNnGyywSWM4X-12" value="apply bucket policy" style="text;html=1;align=center;verticalAlign=middle;resizable=0;points=[];autosize=1;strokeColor=none;fillColor=none;" vertex="1" parent="1">
          <mxGeometry x="490" y="111.5" width="120" height="30" as="geometry" />
        </mxCell>
        <mxCell id="lYJ9KyydGNnGyywSWM4X-17" value="" style="edgeStyle=orthogonalEdgeStyle;rounded=0;orthogonalLoop=1;jettySize=auto;html=1;entryX=0.5;entryY=0;entryDx=0;entryDy=0;" edge="1" parent="1" source="a0exR-PvPegkOZugwnQl-3" target="lYJ9KyydGNnGyywSWM4X-19">
          <mxGeometry relative="1" as="geometry">
            <mxPoint x="58.440000000000055" y="188.75" as="targetPoint" />
            <mxPoint x="140" y="127" as="sourcePoint" />
          </mxGeometry>
        </mxCell>
        <mxCell id="lYJ9KyydGNnGyywSWM4X-19" value="" style="shape=image;html=1;verticalAlign=top;verticalLabelPosition=bottom;labelBackgroundColor=#ffffff;imageAspect=0;aspect=fixed;image=https://icons.diagrams.net/icon-cache1/Phosphor_Light_Vol_2-2941/file-csv-light-1066.svg" vertex="1" parent="1">
          <mxGeometry x="-10" y="190" width="110" height="110" as="geometry" />
        </mxCell>
        <mxCell id="lYJ9KyydGNnGyywSWM4X-23" value="" style="verticalLabelPosition=bottom;html=1;verticalAlign=top;align=center;strokeColor=#000000;fillColor=#000000;shape=mxgraph.azure.file_2;pointerEvents=1;" vertex="1" parent="1">
          <mxGeometry x="162.5" y="480" width="47.5" height="50" as="geometry" />
        </mxCell>
        <mxCell id="lYJ9KyydGNnGyywSWM4X-26" value="JSONL" style="text;html=1;align=center;verticalAlign=middle;resizable=0;points=[];autosize=1;strokeColor=none;fillColor=none;" vertex="1" parent="1">
          <mxGeometry x="158" y="540" width="60" height="30" as="geometry" />
        </mxCell>
        <UserObject label="(items.jsonl, ihealthcare.jsonl)" link="&lt;span style=&quot;color: rgb(0, 0, 0); font-family: Helvetica; font-size: 12px; font-style: normal; font-variant-ligatures: normal; font-variant-caps: normal; font-weight: 400; letter-spacing: normal; orphans: 2; text-align: center; text-indent: 0px; text-transform: none; widows: 2; word-spacing: 0px; -webkit-text-stroke-width: 0px; white-space: nowrap; background-color: rgb(236, 236, 236); text-decoration-thickness: initial; text-decoration-style: initial; text-decoration-color: initial; display: inline !important; float: none;&quot;&gt;(Training_Company_User.csv, Training_Company_Item.csv, Training_Company_ItemInteraction.csv)&lt;/span&gt;" id="lYJ9KyydGNnGyywSWM4X-27">
          <mxCell style="text;whiteSpace=wrap;html=1;" vertex="1" parent="1">
            <mxGeometry x="110" y="565" width="170" height="20" as="geometry" />
          </mxCell>
        </UserObject>
        <mxCell id="lYJ9KyydGNnGyywSWM4X-28" style="edgeStyle=orthogonalEdgeStyle;rounded=0;orthogonalLoop=1;jettySize=auto;html=1;entryX=1;entryY=0.79;entryDx=0;entryDy=0;entryPerimeter=0;shape=wire;dashed=1;exitX=-0.046;exitY=0.511;exitDx=0;exitDy=0;exitPerimeter=0;" edge="1" parent="1" source="lYJ9KyydGNnGyywSWM4X-29" target="a0exR-PvPegkOZugwnQl-3">
          <mxGeometry relative="1" as="geometry">
            <mxPoint x="530" y="445" as="sourcePoint" />
          </mxGeometry>
        </mxCell>
        <mxCell id="lYJ9KyydGNnGyywSWM4X-29" value="import job" style="text;html=1;align=center;verticalAlign=middle;resizable=0;points=[];autosize=1;strokeColor=none;fillColor=none;" vertex="1" parent="1">
          <mxGeometry x="554" y="520" width="80" height="30" as="geometry" />
        </mxCell>
        <mxCell id="lYJ9KyydGNnGyywSWM4X-31" value="AWS Personalize" style="text;html=1;align=center;verticalAlign=middle;resizable=0;points=[];autosize=1;strokeColor=none;fillColor=none;" vertex="1" parent="1">
          <mxGeometry x="499" y="160" width="120" height="30" as="geometry" />
        </mxCell>
        <mxCell id="lYJ9KyydGNnGyywSWM4X-33" style="edgeStyle=orthogonalEdgeStyle;rounded=0;orthogonalLoop=1;jettySize=auto;html=1;" edge="1" parent="1" source="lYJ9KyydGNnGyywSWM4X-12" target="a0exR-PvPegkOZugwnQl-3">
          <mxGeometry relative="1" as="geometry" />
        </mxCell>
        <mxCell id="lYJ9KyydGNnGyywSWM4X-34" value="Create Filter" style="text;html=1;align=center;verticalAlign=middle;resizable=0;points=[];autosize=1;strokeColor=none;fillColor=none;" vertex="1" parent="1">
          <mxGeometry x="725" y="490" width="90" height="30" as="geometry" />
        </mxCell>
        <mxCell id="lYJ9KyydGNnGyywSWM4X-39" value="" style="edgeStyle=orthogonalEdgeStyle;rounded=0;orthogonalLoop=1;jettySize=auto;html=1;" edge="1" parent="1" source="lYJ9KyydGNnGyywSWM4X-36" target="lYJ9KyydGNnGyywSWM4X-38">
          <mxGeometry relative="1" as="geometry" />
        </mxCell>
        <mxCell id="lYJ9KyydGNnGyywSWM4X-36" value="Create Solution" style="text;html=1;align=center;verticalAlign=middle;resizable=0;points=[];autosize=1;strokeColor=none;fillColor=none;" vertex="1" parent="1">
          <mxGeometry x="895" y="320" width="110" height="30" as="geometry" />
        </mxCell>
        <mxCell id="lYJ9KyydGNnGyywSWM4X-38" value="Create Solution Version" style="text;html=1;align=center;verticalAlign=middle;resizable=0;points=[];autosize=1;strokeColor=none;fillColor=none;" vertex="1" parent="1">
          <mxGeometry x="875" y="430" width="150" height="30" as="geometry" />
        </mxCell>
        <mxCell id="lYJ9KyydGNnGyywSWM4X-40" value="T&lt;span style=&quot;background-color: transparent; color: light-dark(rgb(0, 0, 0), rgb(255, 255, 255));&quot;&gt;ags&lt;/span&gt;" style="text;html=1;align=center;verticalAlign=middle;resizable=0;points=[];autosize=1;strokeColor=none;fillColor=none;" vertex="1" parent="1">
          <mxGeometry x="1040" y="370" width="50" height="30" as="geometry" />
        </mxCell>
        <mxCell id="lYJ9KyydGNnGyywSWM4X-41" style="edgeStyle=orthogonalEdgeStyle;rounded=0;orthogonalLoop=1;jettySize=auto;html=1;entryX=0.994;entryY=0.436;entryDx=0;entryDy=0;entryPerimeter=0;exitX=0.507;exitY=0.978;exitDx=0;exitDy=0;exitPerimeter=0;" edge="1" parent="1" source="lYJ9KyydGNnGyywSWM4X-40" target="lYJ9KyydGNnGyywSWM4X-38">
          <mxGeometry relative="1" as="geometry" />
        </mxCell>
      </root>
    </mxGraphModel>
  </diagram>
</mxfile>
